<mxfile host="Electron" modified="2023-10-24T18:01:53.954Z" agent="Mozilla/5.0 (Windows NT 10.0; Win64; x64) AppleWebKit/537.36 (KHTML, like Gecko) draw.io/21.8.2 Chrome/114.0.5735.289 Electron/25.8.1 Safari/537.36" etag="i54EJAhwGeRLgpmUaP3u" version="21.8.2" type="device">
  <diagram name="Page-1" id="FrH9_e5uz3nB8ci-CIL4">
    <mxGraphModel dx="736" dy="861" grid="1" gridSize="10" guides="1" tooltips="1" connect="1" arrows="1" fold="1" page="1" pageScale="1" pageWidth="850" pageHeight="1100" math="0" shadow="0">
      <root>
        <mxCell id="0" />
        <mxCell id="1" parent="0" />
        <mxCell id="eDG3vzUqsvNLsiBRfYn_-17" style="edgeStyle=orthogonalEdgeStyle;rounded=0;orthogonalLoop=1;jettySize=auto;html=1;exitX=0.25;exitY=1;exitDx=0;exitDy=0;entryX=0.25;entryY=0;entryDx=0;entryDy=0;" edge="1" parent="1" source="eDG3vzUqsvNLsiBRfYn_-3" target="eDG3vzUqsvNLsiBRfYn_-5">
          <mxGeometry relative="1" as="geometry" />
        </mxCell>
        <mxCell id="eDG3vzUqsvNLsiBRfYn_-18" value="Get Peers" style="edgeLabel;html=1;align=center;verticalAlign=middle;resizable=0;points=[];" vertex="1" connectable="0" parent="eDG3vzUqsvNLsiBRfYn_-17">
          <mxGeometry x="0.3" y="-4" relative="1" as="geometry">
            <mxPoint x="4" y="-86" as="offset" />
          </mxGeometry>
        </mxCell>
        <mxCell id="eDG3vzUqsvNLsiBRfYn_-21" style="edgeStyle=orthogonalEdgeStyle;rounded=0;orthogonalLoop=1;jettySize=auto;html=1;exitX=0.75;exitY=1;exitDx=0;exitDy=0;entryX=0.75;entryY=0;entryDx=0;entryDy=0;" edge="1" parent="1" source="eDG3vzUqsvNLsiBRfYn_-3" target="eDG3vzUqsvNLsiBRfYn_-5">
          <mxGeometry relative="1" as="geometry">
            <Array as="points" />
          </mxGeometry>
        </mxCell>
        <mxCell id="eDG3vzUqsvNLsiBRfYn_-22" value="Initate Peer Connection" style="edgeLabel;html=1;align=center;verticalAlign=middle;resizable=0;points=[];" vertex="1" connectable="0" parent="eDG3vzUqsvNLsiBRfYn_-21">
          <mxGeometry x="-0.0167" y="-4" relative="1" as="geometry">
            <mxPoint x="14" y="12" as="offset" />
          </mxGeometry>
        </mxCell>
        <mxCell id="eDG3vzUqsvNLsiBRfYn_-29" style="edgeStyle=orthogonalEdgeStyle;rounded=0;orthogonalLoop=1;jettySize=auto;html=1;exitX=1;exitY=0.75;exitDx=0;exitDy=0;entryX=0;entryY=0.75;entryDx=0;entryDy=0;" edge="1" parent="1" source="eDG3vzUqsvNLsiBRfYn_-3" target="eDG3vzUqsvNLsiBRfYn_-4">
          <mxGeometry relative="1" as="geometry" />
        </mxCell>
        <mxCell id="eDG3vzUqsvNLsiBRfYn_-30" value="Start hole punching" style="edgeLabel;html=1;align=center;verticalAlign=middle;resizable=0;points=[];" vertex="1" connectable="0" parent="eDG3vzUqsvNLsiBRfYn_-29">
          <mxGeometry x="0.2526" relative="1" as="geometry">
            <mxPoint x="-19" as="offset" />
          </mxGeometry>
        </mxCell>
        <mxCell id="eDG3vzUqsvNLsiBRfYn_-3" value="&lt;font style=&quot;font-size: 15px;&quot;&gt;&lt;b&gt;Client C1&lt;/b&gt;&lt;/font&gt;&lt;br&gt;no open firewall" style="rounded=0;whiteSpace=wrap;html=1;" vertex="1" parent="1">
          <mxGeometry x="120" y="220" width="120" height="60" as="geometry" />
        </mxCell>
        <mxCell id="eDG3vzUqsvNLsiBRfYn_-23" style="edgeStyle=orthogonalEdgeStyle;rounded=0;orthogonalLoop=1;jettySize=auto;html=1;exitX=0.25;exitY=1;exitDx=0;exitDy=0;entryX=1;entryY=0.25;entryDx=0;entryDy=0;" edge="1" parent="1" source="eDG3vzUqsvNLsiBRfYn_-4" target="eDG3vzUqsvNLsiBRfYn_-5">
          <mxGeometry relative="1" as="geometry" />
        </mxCell>
        <mxCell id="eDG3vzUqsvNLsiBRfYn_-24" value="Register this Client" style="edgeLabel;html=1;align=center;verticalAlign=middle;resizable=0;points=[];" vertex="1" connectable="0" parent="eDG3vzUqsvNLsiBRfYn_-23">
          <mxGeometry x="0.6758" relative="1" as="geometry">
            <mxPoint as="offset" />
          </mxGeometry>
        </mxCell>
        <mxCell id="eDG3vzUqsvNLsiBRfYn_-27" style="edgeStyle=orthogonalEdgeStyle;rounded=0;orthogonalLoop=1;jettySize=auto;html=1;exitX=0;exitY=0.25;exitDx=0;exitDy=0;entryX=1;entryY=0.25;entryDx=0;entryDy=0;" edge="1" parent="1" source="eDG3vzUqsvNLsiBRfYn_-4" target="eDG3vzUqsvNLsiBRfYn_-3">
          <mxGeometry relative="1" as="geometry" />
        </mxCell>
        <mxCell id="eDG3vzUqsvNLsiBRfYn_-28" value="Start hole punching" style="edgeLabel;html=1;align=center;verticalAlign=middle;resizable=0;points=[];" vertex="1" connectable="0" parent="eDG3vzUqsvNLsiBRfYn_-27">
          <mxGeometry x="-0.0632" relative="1" as="geometry">
            <mxPoint as="offset" />
          </mxGeometry>
        </mxCell>
        <mxCell id="eDG3vzUqsvNLsiBRfYn_-4" value="&lt;font style=&quot;font-size: 15px;&quot;&gt;&lt;b&gt;Client C2&lt;/b&gt;&lt;/font&gt;&lt;br&gt;no open firewall" style="rounded=0;whiteSpace=wrap;html=1;" vertex="1" parent="1">
          <mxGeometry x="430" y="220" width="120" height="60" as="geometry" />
        </mxCell>
        <mxCell id="eDG3vzUqsvNLsiBRfYn_-25" style="edgeStyle=orthogonalEdgeStyle;rounded=0;orthogonalLoop=1;jettySize=auto;html=1;exitX=1;exitY=0.75;exitDx=0;exitDy=0;entryX=0.5;entryY=1;entryDx=0;entryDy=0;" edge="1" parent="1" source="eDG3vzUqsvNLsiBRfYn_-5" target="eDG3vzUqsvNLsiBRfYn_-4">
          <mxGeometry relative="1" as="geometry" />
        </mxCell>
        <mxCell id="eDG3vzUqsvNLsiBRfYn_-26" value="Command Start Peering with C1" style="edgeLabel;html=1;align=center;verticalAlign=middle;resizable=0;points=[];" vertex="1" connectable="0" parent="eDG3vzUqsvNLsiBRfYn_-25">
          <mxGeometry x="-0.6037" y="5" relative="1" as="geometry">
            <mxPoint as="offset" />
          </mxGeometry>
        </mxCell>
        <mxCell id="eDG3vzUqsvNLsiBRfYn_-5" value="&lt;font style=&quot;font-size: 15px;&quot;&gt;&lt;b&gt;Client/Server S1&lt;/b&gt;&lt;/font&gt;&lt;br&gt;has open firewall" style="rounded=0;whiteSpace=wrap;html=1;" vertex="1" parent="1">
          <mxGeometry x="120" y="520" width="120" height="60" as="geometry" />
        </mxCell>
      </root>
    </mxGraphModel>
  </diagram>
</mxfile>
